<?xml version="1.0" encoding="UTF-8" standalone="no"?>
<svg
   width="200"
   height="200"
   viewBox="0 0 52.916665 52.916668"
   version="1.1"
   xmlns="http://www.w3.org/2000/svg"
   xmlns:svg="http://www.w3.org/2000/svg">
  <g transform="translate(-47.542,-54.542)">
    <circle
       style="fill:#836fff;fill-opacity:1;stroke-width:0.264583"
       cx="74.000336"
       cy="81.000336"
       r="26.458334" />
    <circle
       style="fill:#1e1e2e;fill-opacity:0.2;stroke-width:0.264583"
       cx="74.000336"
       cy="81.000336"
       r="21.166666" />
    <path
       d="m 61.64159,73.916671 c -0.688351,0 -1.322917,0.634566 -1.322917,1.322916 v 11.90625 c 0,0.68835 0.634566,1.32292 1.322917,1.32292 h 3.96875 c 0.688351,0 1.322916,-0.63457 1.322916,-1.32292 v -11.90625 c 0,-0.68835 -0.634565,-1.322916 -1.322916,-1.322916 z m 0,1.322916 h 3.96875 v 11.90625 h -3.96875 z"
       style="color:#000000;fill:#ffffff;stroke-width:0.264583" />
    <path
       d="m 68.256753,73.916666 v 1.32292 h 3.96875 v 10.58333 h -3.96875 v 1.32292 h 3.96875 c 0.688351,0 1.322917,-0.63457 1.322917,-1.32292 v -10.58333 c 0,-0.68835 -0.634566,-1.32292 -1.322917,-1.32292 z"
       style="color:#000000;fill:#ffffff;stroke-width:0.264583" />
    <path
       d="m 77.969253,73.916666 c -0.688351,0 -1.322917,0.63457 -1.322917,1.32292 v 10.58333 c 0,0.68835 0.634566,1.32292 1.322917,1.32292 h 3.96875 v -1.32292 h -3.96875 v -10.58333 h 3.96875 v -1.32292 z"
       style="color:#000000;fill:#ffffff;stroke-width:0.264583" />
    <path
       d="m 85.905912,73.916672 v 1.32291 h 3.96875 v 10.58334 h -3.96875 v 1.32291 h 3.96875 c 0.68835,0 1.32292,-0.63456 1.32292,-1.32291 v -10.58334 c 0,-0.68835 -0.63457,-1.32291 -1.32292,-1.32291 z"
       style="color:#000000;fill:#ffffff;stroke-width:0.264583" />
    <path
       style="fill:#ff6e91;fill-opacity:1;stroke-width:0.264583"
       d="m 61.641589,90.713837 v 0 c -0.68835,0 -1.322916,0.634566 -1.322916,1.322916 v 0 h 6.614583 v 0 c 0,-0.68835 -0.634566,-1.322916 -1.322917,-1.322916 v 0 z" />
    <path
       style="fill:#47cfff;fill-opacity:1;stroke-width:0.264583"
       d="m 68.256756,92.036753 h 6.614583 v 0 c 0,-0.68835 -0.634566,-1.322916 -1.322917,-1.322916 v 0 h -3.96875 v 0 c -0.68835,0 -1.322916,0.634566 -1.322916,1.322916 z" />
    <path
       style="fill:#ff6e91;fill-opacity:1;stroke-width:0.264583"
       d="m 74.871339,92.036753 h 6.614584 v 0 c 0,-0.68835 -0.634567,-1.322916 -1.322917,-1.322916 v 0 h -3.96875 v 0 c -0.68835,0 -1.322917,0.634566 -1.322917,1.322916 z" />
    <path
       style="fill:#47cfff;fill-opacity:1;stroke-width:0.264583"
       d="m 81.485923,92.036753 h 6.614583 v 0 c 0,-0.68835 -0.634567,-1.322916 -1.322917,-1.322916 v 0 h -3.96875 v 0 c -0.68835,0 -1.322916,0.634566 -1.322916,1.322916 z" />
  </g>
</svg>